<?xml version="1.0" standalone="no"?>
<!DOCTYPE svg PUBLIC "-//W3C//DTD SVG 20010904//EN"
 "http://www.w3.org/TR/2001/REC-SVG-20010904/DTD/svg10.dtd">
<svg version="1.0" xmlns="http://www.w3.org/2000/svg"
 width="400.000000pt" height="400.000000pt" viewBox="0 0 400.000000 400.000000"
 preserveAspectRatio="xMidYMid meet">
<metadata>
Created by potrace 1.14, written by Peter Selinger 2001-2017
</metadata>
<g transform="translate(0.000000,400.000000) scale(0.100000,-0.100000)"
fill="#000000" stroke="none">
<path d="M1906 3715 c-9 -23 5 -135 17 -135 6 0 19 8 30 18 18 16 20 16 34 -3
8 -11 32 -44 54 -74 21 -29 39 -57 39 -62 0 -5 -42 -7 -93 -5 -85 3 -98 6
-138 33 -24 17 -89 56 -144 88 -55 31 -119 70 -143 86 -24 16 -56 36 -72 44
-26 14 -29 13 -34 -3 -11 -37 -16 -131 -7 -136 5 -3 18 10 30 29 25 43 30 41
131 -40 36 -28 82 -64 103 -80 20 -15 37 -33 37 -39 0 -7 -19 -26 -43 -42 -61
-43 -132 -131 -163 -200 -14 -32 -32 -72 -39 -89 -15 -33 -39 -126 -50 -192
-4 -24 -10 -45 -15 -48 -10 -6 -82 25 -256 111 -72 35 -137 64 -143 64 -7 0
-29 9 -49 20 -35 19 -128 60 -164 73 -9 3 -22 0 -28 -8 -13 -16 -3 -40 30 -70
12 -11 37 -40 55 -65 28 -39 35 -60 49 -155 9 -61 16 -127 16 -147 0 -33 5
-40 58 -75 68 -46 69 -51 16 -199 -82 -230 -78 -215 -64 -248 14 -36 14 -76 0
-90 -6 -6 -10 -19 -10 -30 0 -12 -7 -30 -15 -40 -8 -11 -15 -29 -15 -40 0 -11
-8 -28 -17 -39 -13 -14 -19 -41 -21 -97 -4 -80 7 -120 33 -120 7 0 15 -3 17
-8 2 -4 28 -29 59 -55 51 -44 57 -53 62 -99 4 -27 10 -55 15 -62 5 -6 17 -34
27 -63 11 -31 43 -81 82 -126 34 -42 72 -99 84 -129 11 -29 33 -75 48 -103 16
-27 39 -75 52 -105 46 -109 60 -123 199 -194 70 -36 135 -66 142 -66 8 0 44
-19 79 -42 35 -23 75 -43 89 -45 91 -12 151 -22 190 -32 155 -40 412 -106 510
-132 63 -17 165 -41 225 -54 223 -48 330 -73 348 -80 9 -4 17 -3 17 3 0 17
-175 133 -555 367 -60 37 -140 92 -177 122 -67 53 -68 54 -70 106 -1 29 -1 61
0 72 1 11 4 65 5 120 3 110 12 82 -90 289 -19 37 -32 71 -29 73 2 3 38 -17 78
-44 89 -60 102 -65 132 -53 23 8 24 7 22 -42 l-1 -51 55 -34 c66 -40 88 -41
140 -8 45 28 47 35 24 70 -14 22 -14 26 2 54 11 19 27 31 43 33 22 3 31 12 58
66 1 2 10 -1 21 -7 10 -6 52 -11 93 -12 53 -1 84 -7 108 -20 48 -28 52 -14 8
27 -20 19 -49 60 -63 89 -28 61 -53 82 -151 126 -37 17 -88 40 -113 52 l-45
20 -59 -21 -60 -20 -30 22 c-17 12 -48 31 -70 42 -21 10 -40 24 -43 30 -2 6
26 73 62 148 60 122 66 142 62 184 -4 52 -42 197 -57 224 -16 28 -12 36 25 48
43 14 46 28 5 22 -38 -5 -106 12 -188 49 -35 16 -70 29 -78 29 -27 0 -5 -18
45 -36 28 -10 48 -21 45 -25 -6 -11 -114 -43 -120 -36 -7 7 -5 277 2 289 3 4
12 1 20 -7 22 -21 68 -19 89 5 29 32 16 129 -29 220 -20 40 -35 75 -32 78 3 2
30 -12 60 -32 30 -20 57 -36 61 -36 4 0 20 -9 36 -21 23 -16 38 -19 68 -14
l38 6 12 -53 c18 -83 34 -95 27 -22 l-5 61 62 21 c34 11 82 28 106 37 57 21
63 13 12 -19 -26 -17 -43 -36 -47 -54 -3 -15 -19 -78 -35 -141 -16 -62 -29
-123 -29 -135 0 -12 -7 -31 -15 -42 -13 -17 -14 -14 -15 37 0 72 -11 149 -20
149 -4 0 -7 -54 -6 -120 0 -66 3 -120 6 -120 3 0 19 8 35 18 26 16 32 29 42
83 22 113 56 248 71 275 6 11 30 33 52 49 23 16 46 39 51 52 5 13 15 23 24 23
30 0 14 -28 -44 -78 -51 -45 -60 -59 -71 -104 -6 -29 -16 -65 -22 -80 -5 -14
-8 -37 -6 -50 2 -16 10 -1 26 49 12 39 22 78 22 87 0 9 29 47 65 85 47 50 65
76 65 96 0 22 -3 26 -17 20 -10 -3 -30 -9 -46 -12 -15 -3 -30 -10 -33 -14 -3
-5 -12 -9 -21 -9 -9 0 -45 -11 -79 -25 -35 -14 -77 -28 -94 -31 -26 -6 -30 -3
-30 14 0 11 -3 22 -8 24 -4 2 -23 32 -41 68 -65 124 -149 242 -238 336 -27 28
-85 98 -129 155 -91 117 -188 219 -208 219 -8 0 -17 -7 -20 -15z m173 -300
c13 -2 25 -6 26 -7 9 -11 95 -149 95 -153 0 -3 -36 20 -80 52 -43 32 -101 73
-127 92 l-48 33 55 -6 c30 -3 66 -8 79 -11z m-203 -76 c180 -142 318 -255 345
-281 16 -15 57 -46 91 -69 l61 -42 62 20 c66 22 78 18 90 -29 5 -21 1 -24 -40
-34 l-46 -11 -172 105 c-211 128 -290 172 -311 172 -14 0 -16 -19 -16 -147 l0
-148 108 -80 107 -80 -4 -145 c-2 -80 -5 -147 -7 -149 -11 -12 -336 106 -385
140 -25 18 -27 25 -33 131 -4 62 -8 155 -8 205 0 52 -6 99 -12 107 -6 7 -43
26 -83 40 -90 34 -98 43 -79 87 42 99 50 115 63 128 8 7 22 25 31 39 16 24
127 112 141 112 4 0 48 -32 97 -71z m539 -250 c39 -49 45 -62 35 -75 -8 -8
-21 -12 -31 -9 -12 4 -19 1 -19 -6 0 -23 -19 4 -54 77 -30 61 -32 70 -18 75
26 10 37 2 87 -62z m-98 -26 c3 -13 9 -23 14 -23 5 0 9 -7 9 -15 0 -21 -10
-18 -49 15 -32 27 -34 31 -22 57 12 27 13 27 27 8 8 -11 17 -30 21 -42z
m-1344 -76 c9 -11 17 -22 17 -23 0 -10 -80 40 -101 62 l-24 26 45 -22 c25 -13
53 -32 63 -43z m32 37 c6 -10 32 -40 58 -65 32 -32 47 -55 47 -72 0 -14 6 -54
14 -89 8 -35 18 -98 21 -141 4 -43 13 -84 21 -91 18 -19 300 -189 442 -267 57
-31 78 -20 75 42 -8 261 -17 370 -29 380 -15 13 -19 39 -6 39 5 0 17 -9 28
-21 16 -18 20 -50 31 -242 l12 -222 -25 -22 -25 -23 -50 25 c-43 22 -106 59
-174 103 -11 6 -27 15 -35 19 -23 10 -190 113 -240 148 -50 35 -47 25 -75 245
l-17 135 -54 60 c-51 57 -68 91 -41 83 6 -3 17 -13 22 -24z m619 -70 c3 -7 8
-45 12 -84 6 -60 4 -72 -7 -67 -8 3 -44 16 -81 28 -67 22 -68 24 -68 58 0 19
4 48 10 65 5 17 12 44 15 59 l6 28 54 -38 c30 -21 57 -43 59 -49z m-478 12
c220 -108 354 -164 430 -182 6 -1 23 -23 38 -48 23 -40 27 -59 33 -169 4 -95
3 -131 -8 -156 -15 -34 -17 -35 -39 -20 -11 8 -12 12 -2 16 14 5 17 53 3 53
-5 0 -16 -7 -25 -15 -29 -29 -67 -14 -40 16 9 10 14 25 10 34 -5 14 -12 12
-46 -12 -22 -15 -40 -33 -40 -39 0 -7 29 -31 65 -54 36 -24 63 -45 61 -48 -5
-4 -153 83 -166 97 -5 6 -26 18 -113 63 -31 17 -69 50 -41 36 5 -2 26 -12 46
-21 20 -9 39 -21 43 -27 11 -18 41 -11 52 13 29 58 25 81 -25 130 -45 45 -72
58 -72 38 0 -6 -13 -23 -30 -38 -16 -15 -35 -40 -43 -56 -14 -27 -15 -27 -36
-10 -15 13 -23 33 -26 68 -3 28 -9 73 -14 100 -5 28 -14 83 -21 123 -11 62
-18 78 -49 107 -44 44 -33 44 55 1z m533 -68 l-2 -83 -8 75 c-7 68 -5 90 7 90
2 0 3 -37 3 -82z m-680 17 c37 -18 51 -32 55 -52 6 -26 36 -249 36 -265 0 -4
-24 10 -54 30 l-54 37 -6 65 c-3 36 -12 98 -20 138 -7 39 -11 72 -9 72 2 0 26
-11 52 -25z m351 -351 c30 -33 31 -36 9 -29 -30 10 -69 35 -69 44 0 10 11 21
20 21 4 0 22 -16 40 -36z m-172 -74 c40 -24 72 -51 72 -58 0 -7 -16 -52 -36
-99 -45 -110 -64 -164 -64 -185 0 -22 -23 -23 -58 -4 -15 8 -45 23 -67 32 -22
10 -41 19 -43 20 -2 1 19 67 47 146 27 78 52 156 56 171 7 33 1 34 93 -23z
m767 -50 c22 -10 56 -21 75 -25 19 -4 46 -12 60 -18 22 -9 18 -11 -45 -24 -38
-7 -81 -16 -95 -19 -19 -4 -45 8 -102 45 -43 28 -82 51 -88 51 -5 0 -10 11
-10 24 0 13 -3 31 -6 40 -6 15 68 -10 211 -74z m-641 -29 c4 -5 34 -25 69 -44
120 -66 142 -79 150 -86 7 -7 -8 -58 -60 -203 l-24 -66 -42 17 c-23 10 -81 33
-129 51 -49 18 -88 36 -88 40 0 11 35 116 60 180 12 30 26 70 31 88 10 32 23
41 33 23z m501 -36 c30 -20 55 -43 55 -51 0 -25 -49 -203 -61 -219 -7 -11 -57
-158 -80 -237 -13 -47 -15 -48 -52 -48 -21 0 -46 -4 -56 -10 -15 -7 -34 3 -97
51 -44 32 -89 62 -101 65 -31 8 -29 16 10 34 38 18 65 65 97 170 33 111 42
129 59 122 9 -3 18 -8 21 -11 10 -12 50 -31 64 -31 8 0 28 12 45 26 29 25 31
29 31 100 0 41 2 74 5 74 2 0 29 -16 60 -35z m585 21 c-21 -19 -100 -28 -100
-11 0 14 24 21 80 24 29 1 32 -1 20 -13z m-734 -93 c-2 -3 -15 2 -28 11 -18
13 -19 16 -5 16 10 0 21 8 25 18 5 13 8 11 10 -11 2 -16 1 -31 -2 -34z m464
36 c0 -5 -4 -9 -10 -9 -5 0 -10 7 -10 16 0 8 5 12 10 9 6 -3 10 -10 10 -16z
m303 -72 c16 -50 34 -105 39 -120 20 -51 0 -39 -28 17 -35 73 -47 82 -80 67
-37 -16 -44 -7 -44 59 0 53 2 59 23 63 61 12 60 12 90 -86z m-340 36 c27 -90
36 -128 58 -251 13 -73 18 -127 13 -132 -15 -15 -269 -16 -292 -1 -11 7 -12
25 -3 97 6 49 13 109 15 134 13 136 18 170 27 175 14 10 31 -5 21 -18 -11 -14
-30 -152 -36 -265 -5 -67 -3 -84 9 -89 25 -9 41 13 64 86 12 38 27 74 34 79 7
6 32 14 57 19 51 10 51 13 29 113 -14 64 -25 82 -48 76 -48 -13 -91 -16 -91
-6 0 5 12 10 28 10 15 0 34 5 42 10 36 23 58 12 73 -37z m151 -25 c-8 -104 -6
-146 11 -177 15 -30 21 -131 8 -131 -11 0 -45 119 -38 131 11 17 -23 113 -45
127 -11 7 -20 22 -21 35 0 20 -1 20 -8 3 -8 -20 13 -76 28 -76 4 0 13 -16 20
-35 10 -29 10 -39 0 -51 -9 -11 -10 -20 -2 -32 5 -9 16 -41 23 -69 8 -29 17
-53 22 -53 4 0 8 -7 8 -15 0 -8 -6 -15 -14 -15 -14 0 -35 59 -67 180 -6 25
-15 54 -20 65 -4 11 -12 41 -17 67 -8 38 -7 48 5 52 9 4 12 13 8 25 -5 16 0
20 27 24 83 10 78 14 72 -55z m221 26 c17 -41 19 -64 6 -64 -5 0 -12 17 -16
38 -4 20 -11 43 -17 50 -7 8 -7 12 1 12 6 0 18 -16 26 -36z m-175 -30 c0 -13
-4 -24 -10 -24 -5 0 -10 14 -10 31 0 17 4 28 10 24 6 -3 10 -17 10 -31z m-226
-21 c13 -91 14 -87 -28 -94 -48 -8 -68 -32 -92 -113 l-19 -61 -3 55 c-2 30 2
82 7 116 6 33 11 74 11 91 0 27 4 30 48 40 26 6 52 11 58 12 6 0 14 -20 18
-46z m235 -100 c1 -46 -11 -56 -29 -24 -13 26 -13 67 2 94 l12 22 7 -25 c4
-14 7 -44 8 -67z m207 -20 c-8 -8 -26 44 -26 70 1 14 7 6 16 -21 9 -24 13 -46
10 -49z m-80 11 c31 -62 41 -71 57 -55 15 15 27 14 27 -3 0 -7 -10 -21 -22
-29 -13 -8 -41 -31 -63 -51 -22 -19 -53 -40 -70 -47 -16 -6 -37 -15 -47 -19
-14 -8 -17 -1 -23 48 -3 32 -2 68 4 82 9 22 10 20 11 -20 0 -25 5 -52 10 -60
7 -11 10 12 10 75 -2 127 -2 123 23 128 50 10 55 7 83 -49z m-586 -137 c-6
-48 -8 -116 -6 -152 l5 -66 -37 3 c-30 2 -38 7 -40 27 -4 24 76 286 85 278 2
-3 -1 -43 -7 -90z m-771 37 c34 -20 78 -43 99 -51 l37 -14 -38 5 c-38 5 -167
73 -167 88 0 12 4 11 69 -28z m199 -1 l27 -14 -35 7 c-44 8 -80 22 -80 30 0 9
58 -6 88 -23z m-228 -39 c36 -24 52 -45 33 -44 -10 1 -89 70 -79 70 3 0 24
-12 46 -26z m295 16 c3 -5 -1 -10 -9 -10 -9 0 -16 5 -16 10 0 6 4 10 9 10 6 0
13 -4 16 -10z m65 -25 c14 -8 19 -14 10 -14 -8 0 -26 6 -40 14 -14 8 -19 14
-10 14 8 0 26 -6 40 -14z m1075 5 c3 -5 1 -10 -4 -10 -6 0 -11 5 -11 10 0 6 2
10 4 10 3 0 8 -4 11 -10z m-1245 -30 c0 -5 -2 -10 -4 -10 -3 0 -8 5 -11 10 -3
6 -1 10 4 10 6 0 11 -4 11 -10z m-103 -16 c-3 -3 -12 -4 -19 -1 -8 3 -5 6 6 6
11 1 17 -2 13 -5z m1302 -33 c-2 -6 -10 2 -17 17 -11 25 -11 25 4 10 9 -9 15
-21 13 -27z m-1410 -11 c22 -19 23 -22 12 -83 -6 -35 -11 -85 -11 -110 0 -53
-7 -57 -38 -24 l-22 23 26 23 c24 21 26 28 22 88 -3 52 -9 69 -26 83 -27 22
-30 46 -4 31 9 -6 28 -20 41 -31z m1344 -10 c3 -11 1 -23 -4 -26 -5 -3 -9 6
-9 20 0 31 6 34 13 6z m47 -18 c0 -7 -4 -10 -10 -7 -5 3 -10 16 -10 28 0 18 2
19 10 7 5 -8 10 -21 10 -28z m-116 -34 c-6 -62 -22 -88 -51 -88 -10 0 -13 17
-12 64 1 55 5 66 23 74 43 21 47 16 40 -50z m-1104 32 c12 -8 10 -10 -10 -11
-14 0 -35 -2 -47 -5 -13 -2 -23 0 -23 5 0 8 20 15 55 19 6 1 17 -3 25 -8z
m287 -37 l62 -47 -40 -18 c-46 -20 -57 -17 -127 37 -55 43 -59 56 -21 66 48
14 66 8 126 -38z m400 25 c-3 -8 -6 -5 -6 6 -1 11 2 17 5 13 3 -3 4 -12 1 -19z
m-948 -30 c-1 -74 -17 -92 -18 -20 -1 35 3 62 9 62 6 0 10 -19 9 -42z m1226
32 c3 -5 1 -10 -4 -10 -6 0 -11 5 -11 10 0 6 2 10 4 10 3 0 8 -4 11 -10z
m-239 -36 c-4 -9 -9 -15 -11 -12 -3 3 -3 13 1 22 4 9 9 15 11 12 3 -3 3 -13
-1 -22z m38 -18 c-3 -21 -8 -35 -11 -32 -2 2 -1 20 3 40 3 21 8 35 11 32 2 -2
1 -20 -3 -40z m49 7 c-3 -18 -9 -33 -13 -33 -5 0 -4 15 1 32 5 18 9 35 9 37 0
2 2 2 4 0 2 -2 1 -19 -1 -36z m38 -25 l-21 -43 6 35 c8 43 26 80 31 63 2 -6
-5 -31 -16 -55z m-716 5 c35 -27 63 -52 62 -57 -2 -5 -27 -17 -57 -26 -29 -9
-61 -27 -71 -39 l-18 -22 -71 56 c-38 31 -70 62 -70 70 0 17 16 20 25 5 3 -5
15 -10 26 -10 23 0 25 28 2 37 -13 5 -9 9 18 19 61 22 86 17 154 -33z m812 15
c-3 -7 -5 -2 -5 12 0 14 2 19 5 13 2 -7 2 -19 0 -25z m54 -41 c-1 -34 -7 -67
-11 -73 -13 -15 -70 -156 -70 -173 0 -8 -3 -12 -6 -8 -11 11 20 163 48 234 15
39 28 77 28 84 0 7 3 9 7 6 3 -4 5 -35 4 -70z m-104 31 c-3 -8 -6 -5 -6 6 -1
11 2 17 5 13 3 -3 4 -12 1 -19z m23 -55 c-11 -17 -11 -17 -6 0 3 10 6 24 7 30
0 9 2 9 5 0 3 -7 0 -20 -6 -30z m-1043 -10 c-3 -10 -5 -4 -5 12 0 17 2 24 5
18 2 -7 2 -21 0 -30z m703 8 c76 -22 79 -25 74 -69 -18 -135 -27 -172 -39
-172 -19 0 -59 71 -84 150 -12 36 -26 73 -31 82 -15 27 -12 41 8 33 9 -4 42
-15 72 -24z m660 -23 c0 -4 -12 -11 -26 -14 -34 -9 -63 18 -45 40 11 13 16 12
42 -2 16 -9 29 -20 29 -24z m-793 -13 c31 -54 29 -62 -14 -70 -21 -4 -49 -12
-63 -20 -14 -7 -49 -18 -79 -26 -69 -17 -78 -37 -80 -184 -1 -60 -4 -111 -6
-113 -8 -8 -44 20 -171 134 l-133 119 -1 83 c0 47 4 82 10 82 5 0 39 -25 75
-55 35 -30 71 -55 80 -55 9 0 18 12 21 29 4 16 14 31 23 34 9 3 75 24 146 46
72 22 139 39 150 38 11 -1 29 -19 42 -42z m340 4 c119 -16 115 -13 108 -67
-14 -103 -12 -100 -73 -118 -31 -9 -65 -20 -74 -25 -10 -5 -32 -9 -49 -9 l-31
0 6 53 c3 28 9 80 12 115 4 34 10 62 15 62 4 0 43 -5 86 -11z m273 -3 c0 -3
-19 -44 -41 -93 -23 -48 -49 -107 -59 -129 -18 -41 -40 -65 -40 -44 0 5 4 18
9 28 5 9 21 49 37 87 49 124 64 155 79 155 8 0 15 -2 15 -4z m106 -22 l34 -26
35 26 34 27 39 -26 c56 -37 46 -72 -35 -118 -6 -4 -17 -1 -25 6 -7 7 -41 30
-76 52 -42 25 -61 43 -57 53 3 7 5 18 5 23 0 14 9 11 46 -17z m339 -4 c3 -5 1
-10 -4 -10 -6 0 -11 -4 -11 -10 0 -5 7 -10 15 -10 8 0 15 4 15 9 0 4 12 6 26
3 17 -3 22 -7 14 -12 -7 -4 -9 -13 -6 -19 9 -15 11 -15 -74 18 -43 16 -68 30
-59 34 24 9 77 8 84 -3z m-1642 -25 c4 -8 2 -17 -3 -20 -6 -4 -10 3 -10 14 0
25 6 27 13 6z m1558 -18 c24 -12 76 -33 114 -46 39 -14 86 -35 105 -48 45 -30
28 -29 -35 2 -51 25 -75 31 -75 18 0 -5 -4 -14 -9 -22 -7 -11 -22 -7 -79 20
-66 31 -70 35 -70 66 0 18 1 33 3 33 1 0 22 -10 46 -23z m-167 -131 c-2 -97
-5 -126 -13 -126 -20 0 -170 106 -171 119 0 8 7 40 16 72 l16 57 77 -48 c64
-40 76 -51 75 -74z m401 113 c4 -6 17 -14 29 -19 18 -7 18 -9 3 -9 -23 -1 -57
17 -57 29 0 13 17 13 25 -1z m-598 -21 c-3 -8 -6 -5 -6 6 -1 11 2 17 5 13 3
-3 4 -12 1 -19z m-569 -10 c-3 -7 -36 -17 -74 -24 -38 -6 -82 -15 -99 -18 -29
-6 -29 -6 5 10 76 36 175 55 168 32z m848 -34 c-11 -7 -22 -11 -25 -8 -3 3 3
12 13 20 11 7 22 11 25 8 3 -3 -3 -12 -13 -20z m64 -10 c0 -2 -9 -4 -21 -4
-11 0 -18 4 -14 10 5 8 35 3 35 -6z m-374 -39 c-4 -14 -13 -25 -21 -25 -12 0
-12 5 2 36 18 37 29 31 19 -11z m-478 5 c24 -15 32 -27 32 -48 0 -15 5 -33 11
-39 9 -9 9 -19 -1 -42 -7 -17 -10 -45 -6 -63 7 -42 0 -52 -52 -73 -49 -20
-118 -16 -155 8 -20 13 -26 28 -31 77 -6 52 -4 68 15 108 33 67 63 92 113 92
23 0 55 -9 74 -20z m794 -22 c-2 -21 -8 -38 -13 -38 -13 0 -11 54 3 68 15 15
16 14 10 -30z m109 32 c20 -11 27 -40 9 -40 -5 0 -10 4 -10 10 0 5 -7 7 -15 4
-10 -4 -15 0 -15 15 0 24 4 25 31 11z m-1181 -120 c0 -60 -4 -111 -9 -115 -15
-9 -16 3 -13 123 4 145 22 138 22 -8z m1030 80 c0 -22 -3 -40 -8 -40 -4 0 -6
18 -4 40 2 22 6 40 8 40 2 0 4 -18 4 -40z m94 31 c3 -5 -1 -14 -9 -21 -13 -10
-15 -9 -15 9 0 21 14 28 24 12z m366 2 c-1 -14 -39 -58 -45 -52 -9 10 17 59
32 59 7 0 13 -3 13 -7z m-891 -30 c-5 -67 -11 -73 -106 -112 -51 -21 -95 -36
-98 -33 -3 3 -5 29 -5 59 0 48 2 53 22 53 21 0 53 8 133 35 53 18 55 18 54 -2z
m-914 -33 c24 -25 26 -32 15 -45 -16 -19 -23 -12 -44 38 -18 45 -9 47 29 7z
m675 -6 c0 -8 -4 -14 -9 -14 -11 0 -22 26 -14 34 9 9 23 -3 23 -20z m938 5
c24 -9 25 -10 16 -33 -9 -25 -28 -19 -70 20 l-39 35 35 -7 c19 -3 45 -10 58
-15z m212 11 c0 -5 -4 -10 -10 -10 -5 0 -10 5 -10 10 0 6 5 10 10 10 6 0 10
-4 10 -10z m-340 -91 c35 -30 33 -64 -4 -53 -74 23 -74 24 -54 100 l13 46 7
-33 c4 -20 19 -45 38 -60z m46 61 c38 -27 56 -50 39 -50 -10 0 -94 65 -95 73
0 12 10 8 56 -23z m-426 -55 c18 -42 31 -77 29 -79 -64 -53 -191 -140 -246
-168 -65 -33 -325 -128 -349 -128 -11 0 -54 138 -54 174 0 21 7 27 43 36 86
22 108 32 124 56 8 13 23 24 32 24 19 0 139 47 156 60 6 5 28 11 50 15 44 8
110 39 120 56 6 9 40 27 56 28 4 1 21 -33 39 -74z m310 65 c0 -5 -4 -10 -10
-10 -5 0 -10 5 -10 10 0 6 5 10 10 10 6 0 10 -4 10 -10z m-30 -36 c0 -8 -4
-14 -10 -14 -5 0 -10 9 -10 21 0 11 5 17 10 14 6 -3 10 -13 10 -21z m-53 -6
c-3 -8 -6 -5 -6 6 -1 11 2 17 5 13 3 -3 4 -12 1 -19z m-662 -76 c-3 -3 -11 0
-17 6 -10 10 -10 17 0 32 6 11 13 28 14 37 1 10 3 -2 5 -26 3 -23 2 -46 -2
-49z m856 67 c16 -11 29 -25 29 -30 0 -11 -55 19 -72 39 -17 20 10 15 43 -9z
m-1421 -35 l45 -45 -24 -20 c-13 -10 -27 -19 -31 -19 -4 0 -24 20 -45 46 -36
43 -37 46 -20 65 10 10 21 19 24 19 4 0 27 -21 51 -46z m1320 -79 c29 -19 58
-35 66 -35 8 0 14 -4 14 -10 0 -20 -41 -9 -95 25 -50 32 -69 55 -46 55 5 0 32
-16 61 -35z m113 9 c11 -11 -3 -24 -18 -18 -8 4 -12 10 -9 15 6 11 18 12 27 3z
m-1150 -38 c13 -12 28 -25 35 -27 11 -4 68 -206 60 -214 -6 -6 -91 10 -192 36
-78 21 -91 28 -105 54 -18 33 -61 137 -61 146 0 12 94 17 111 6 13 -8 30 -7
66 5 63 21 59 21 86 -6z m775 -278 c-13 -9 -52 -30 -88 -45 -36 -15 -97 -50
-136 -78 -39 -27 -121 -74 -182 -104 -106 -52 -112 -54 -130 -38 -11 10 -26
15 -35 11 -10 -3 -43 8 -79 27 -35 18 -93 48 -131 67 -69 36 -87 58 -20 27 44
-21 128 -46 162 -48 13 -1 26 -8 29 -14 6 -20 32 -15 32 5 0 13 16 22 65 34
110 29 402 182 500 262 l30 24 3 -56 c3 -49 0 -58 -20 -74z m70 -199 c-32 -9
-119 -55 -145 -78 -14 -11 -27 -40 -34 -71 -7 -31 -16 -50 -22 -47 -7 2 -51
12 -99 23 -86 18 -112 37 -70 50 54 18 290 133 321 156 24 18 25 18 48 -4 l24
-23 -23 -6z"/>
<path d="M1443 2554 c-3 -8 -1 -20 5 -26 7 -7 2 -17 -16 -33 -22 -19 -24 -26
-15 -36 10 -10 17 -9 35 8 13 11 33 26 46 32 30 16 28 33 -7 54 -36 21 -40 21
-48 1z"/>
<path d="M2650 1580 c0 -5 4 -10 9 -10 6 0 13 5 16 10 3 6 -1 10 -9 10 -9 0
-16 -4 -16 -10z"/>
<path d="M2615 2479 c-16 -10 -38 -19 -47 -19 -17 0 -34 -17 -25 -26 8 -8 117
44 117 56 0 14 -10 12 -45 -11z"/>
</g>
</svg>
