<?xml version="1.0" encoding="UTF-8"?>
<!--Generator: Apple Native CoreSVG 232.5-->
<!DOCTYPE svg
PUBLIC "-//W3C//DTD SVG 1.1//EN"
       "http://www.w3.org/Graphics/SVG/1.1/DTD/svg11.dtd">
<svg version="1.1" xmlns="http://www.w3.org/2000/svg" xmlns:xlink="http://www.w3.org/1999/xlink" width="31.2842" height="22.4805">
 <g>
  <rect height="22.4805" opacity="0" width="31.2842" x="0" y="0"/>
  <path d="M4.29199 22.4805L27.207 22.4805C29.7754 22.4805 31.2842 20.9814 31.2842 18.2129L31.2842 4.27246C31.2842 1.50879 29.7705 0.0146484 26.9922 0.0146484L4.07715 0.0146484C1.50879 0.0146484 0 1.50879 0 4.27246L0 18.2129C0 20.9814 1.51855 22.4805 4.29199 22.4805ZM4.38477 19.7998C3.2959 19.7998 2.68066 19.1992 2.68066 18.0811L2.68066 4.39941C2.68066 3.29102 3.2959 2.69043 4.38477 2.69043L26.8994 2.69043C27.9932 2.69043 28.6035 3.29102 28.6035 4.40918L28.6035 18.0908C28.6035 19.1992 27.9932 19.7998 26.8994 19.7998ZM15.6396 14.79C16.5576 14.79 17.3389 14.4678 18.1592 13.7256L29.8535 3.20312L28.1787 1.51855L16.7041 11.8604C16.3525 12.1729 16.0059 12.3291 15.6396 12.3291C15.2686 12.3291 14.9268 12.1729 14.5801 11.8604L3.10059 1.51855L1.4209 3.20312L13.1201 13.7256C13.9404 14.4678 14.7168 14.79 15.6396 14.79ZM3.33496 20.4932L12.2754 11.5527L10.5664 9.90234L1.65527 18.8037ZM27.9541 20.498L29.6338 18.8086L20.7178 9.90234L19.0137 11.5527Z" fill="#000000" fill-opacity="0.85"/>
 </g>
</svg>
